<?xml version="1.0" standalone="no"?>
<!DOCTYPE svg PUBLIC "-//W3C//DTD SVG 20010904//EN"
 "http://www.w3.org/TR/2001/REC-SVG-20010904/DTD/svg10.dtd">
<svg version="1.0" xmlns="http://www.w3.org/2000/svg"
 width="1152.000000pt" height="1152.000000pt" viewBox="0 0 1152.000000 1152.000000"
 preserveAspectRatio="xMidYMid meet">
<metadata>
Created by potrace 1.14, written by Peter Selinger 2001-2017
</metadata>
<g transform="translate(0.000000,1152.000000) scale(0.100000,-0.100000)"
fill="#000000" stroke="none">
<path d="M5707 9994 c-1 -1 -74 -4 -162 -8 -88 -3 -173 -8 -190 -10 -16 -2
-61 -7 -100 -11 -94 -8 -135 -13 -165 -20 -14 -2 -41 -8 -60 -11 -320 -58
-673 -166 -960 -292 -292 -129 -690 -360 -808 -469 -7 -7 -17 -13 -22 -13 -5
0 -17 -8 -27 -18 -15 -15 -59 -50 -168 -135 -96 -74 -437 -412 -524 -520 -30
-36 -59 -63 -64 -60 -6 3 -7 1 -3 -5 4 -7 -16 -41 -46 -79 -30 -38 -60 -78
-68 -90 -90 -133 -177 -262 -187 -278 -48 -80 -131 -230 -186 -337 -35 -70
-68 -124 -72 -120 -5 4 -5 1 -1 -5 4 -7 -4 -36 -18 -65 -51 -111 -172 -453
-202 -573 -4 -16 -9 -34 -10 -40 -9 -28 -73 -315 -78 -350 -3 -22 -8 -51 -10
-65 -4 -26 -23 -168 -31 -230 -9 -84 -19 -296 -18 -425 0 -125 9 -390 14 -390
1 0 2 -16 4 -35 2 -32 7 -80 20 -185 13 -96 55 -314 82 -420 8 -33 17 -70 19
-82 7 -39 63 -213 111 -343 54 -151 127 -318 200 -462 30 -59 54 -110 53 -114
-1 -4 2 -10 7 -13 5 -3 33 -46 61 -96 367 -632 849 -1121 1497 -1517 169 -103
434 -233 640 -314 94 -36 363 -124 382 -124 8 0 11 -5 7 -12 -4 -7 -3 -8 4 -4
6 4 67 -6 134 -22 68 -17 139 -33 158 -36 19 -3 46 -8 60 -11 14 -3 54 -10 90
-16 36 -6 72 -12 80 -14 8 -2 44 -6 80 -10 36 -4 76 -9 90 -11 135 -23 684
-25 845 -3 33 4 87 10 120 14 93 8 123 13 230 35 55 12 114 24 130 27 141 24
472 126 695 214 337 133 763 383 1025 600 11 10 43 36 70 59 216 179 503 479
637 666 17 24 35 44 40 44 4 0 8 6 8 13 0 7 10 24 23 38 12 14 27 32 32 41 6
9 43 64 83 122 39 59 72 111 72 116 0 6 5 10 10 10 6 0 10 4 10 10 0 5 25 51
56 102 59 97 206 373 204 383 0 3 8 22 18 43 30 59 51 107 107 257 74 197 126
374 170 580 3 11 7 30 10 43 11 47 13 58 20 102 4 25 9 52 10 60 2 9 6 43 10
75 4 33 9 69 11 79 15 84 29 317 29 493 0 138 3 209 10 205 6 -3 5 1 -1 9 -7
8 -15 57 -18 109 -21 355 -128 837 -261 1180 -286 737 -728 1335 -1355 1835
-135 108 -416 293 -572 378 -20 11 -34 25 -31 30 3 6 1 7 -5 3 -6 -4 -56 16
-111 43 -55 28 -159 75 -233 106 -73 31 -140 59 -148 64 -8 4 -36 14 -62 22
-27 7 -48 16 -48 19 0 3 -10 7 -22 7 -13 1 -32 6 -43 11 -86 41 -533 147 -740
177 -22 3 -53 8 -70 10 -83 14 -567 38 -578 29z m153 -979 c47 -24 97 -83 106
-124 10 -53 13 -101 4 -96 -5 3 -6 -4 -3 -15 7 -28 -41 -106 -82 -133 -29 -18
-35 -28 -35 -59 0 -36 1 -37 26 -28 14 6 42 12 62 15 20 3 61 9 90 13 31 6 55
5 58 0 3 -5 11 -5 17 0 19 16 171 5 317 -22 128 -23 274 -29 335 -13 165 44
219 50 247 27 l22 -18 -1 -438 0 -438 -28 -22 c-30 -24 -123 -51 -214 -61
-103 -13 -233 -4 -376 24 -169 34 -306 35 -440 3 -22 -5 -42 -9 -45 -10 -3 0
-20 -3 -37 -6 l-33 -6 0 -264 0 -263 23 1 c61 2 97 -4 118 -20 22 -19 22 -21
22 -250 0 -161 3 -232 11 -235 9 -3 470 -1 487 2 3 0 6 105 6 232 0 218 1 232
21 251 19 19 33 20 223 21 112 0 214 -3 226 -7 34 -11 39 -50 38 -286 l-1
-215 245 1 c135 1 249 2 254 3 4 0 7 106 7 234 0 210 2 236 18 250 19 17 100
29 108 15 3 -4 10 -5 16 -2 6 4 39 7 73 7 34 0 67 -3 73 -7 6 -3 13 -3 16 2 3
5 20 7 38 5 18 -2 40 -4 48 -4 8 1 28 1 44 2 16 0 38 -8 49 -19 19 -19 19 -46
19 -1264 l0 -1244 249 0 c215 0 250 2 253 16 2 8 4 114 4 235 1 214 1 220 22
237 20 16 46 18 235 18 174 0 215 -3 225 -15 6 -8 8 -20 4 -26 -4 -8 -3 -9 4
-5 7 4 12 1 13 -6 1 -7 2 -283 3 -613 1 -562 0 -602 -17 -638 -10 -23 -22 -35
-29 -31 -7 4 -8 3 -4 -4 6 -11 -40 -93 -56 -100 -5 -2 -8 -10 -8 -18 0 -8 -4
-14 -10 -14 -5 0 -10 -7 -10 -15 0 -8 -4 -15 -8 -15 -4 0 -16 -14 -26 -31 -95
-160 -411 -503 -651 -706 -116 -98 -327 -253 -344 -253 -5 0 -11 -4 -13 -9 -8
-22 -268 -172 -454 -261 -148 -72 -421 -182 -479 -194 -5 -1 -35 -10 -65 -19
-93 -29 -111 -34 -228 -62 -63 -14 -117 -24 -120 -21 -3 3 -5 308 -5 677 0
712 -4 774 -48 896 -12 32 -25 62 -30 68 -5 5 -9 17 -9 27 0 10 -4 18 -8 18
-5 0 -18 17 -29 38 -40 69 -152 169 -253 224 -132 72 -357 109 -508 83 -24 -4
-49 -8 -55 -9 -61 -10 -213 -72 -241 -98 -11 -10 -23 -18 -27 -18 -4 0 -22
-12 -40 -28 -130 -109 -210 -238 -243 -390 -18 -78 -27 -133 -27 -147 1 -17 3
-1309 2 -1328 -1 -22 -2 -22 -281 48 -8 2 -21 4 -28 4 -7 1 -10 6 -6 13 4 7 3
8 -4 4 -6 -4 -34 0 -61 8 -58 17 -247 83 -276 96 -11 5 -62 28 -114 50 -243
106 -582 302 -736 427 -6 4 -46 35 -90 68 -82 61 -109 85 -224 190 -75 68
-229 222 -282 280 -107 119 -273 339 -374 495 l-49 75 0 624 1 624 22 18 c21
17 44 19 231 19 183 0 210 -2 229 -17 21 -17 21 -26 22 -253 l0 -235 250 0
c213 0 250 2 254 15 2 8 4 568 3 1244 0 1226 0 1228 20 1249 20 19 32 20 232
20 187 0 213 -2 230 -18 18 -17 20 -34 22 -254 l3 -236 250 0 250 0 1 225 c0
124 4 235 8 247 10 31 47 36 269 36 252 0 231 26 229 -272 0 -127 2 -232 6
-232 4 -1 26 -2 49 -3 23 -1 45 -5 49 -8 4 -4 12 -4 18 0 6 4 94 7 196 7 l185
0 1 191 c0 105 4 195 7 202 4 6 4 13 -1 16 -5 3 -7 19 -4 36 6 43 40 62 107
61 l55 0 0 774 c0 467 -4 775 -9 775 -19 0 -72 54 -92 92 -79 154 33 326 203
313 31 -2 71 -11 88 -20z"/>
<path d="M4516 6055 c-19 -14 -20 -32 -20 -482 l-1 -468 22 -22 c22 -22 27
-23 233 -23 197 0 211 1 230 20 23 23 22 9 22 185 0 88 5 145 12 154 6 9 7 12
1 9 -8 -5 -11 90 -12 300 -1 303 -1 307 -23 324 -20 16 -45 18 -234 18 -169
-1 -215 -4 -230 -15z"/>
<path d="M6535 6050 c-18 -20 -19 -47 -20 -473 0 -467 2 -496 40 -511 9 -3
108 -6 220 -6 184 0 205 2 226 19 l23 19 0 467 0 468 -23 18 c-21 17 -43 19
-236 19 -201 0 -213 -1 -230 -20z"/>
<path d="M5510 5999 c0 -5 5 -7 10 -4 6 3 10 8 10 11 0 2 -4 4 -10 4 -5 0 -10
-5 -10 -11z"/>
<path d="M5510 5039 c0 -5 5 -7 10 -4 6 3 10 8 10 11 0 2 -4 4 -10 4 -5 0 -10
-5 -10 -11z"/>
<path d="M7753 4795 c0 -8 4 -12 9 -9 5 3 6 10 3 15 -9 13 -12 11 -12 -6z"/>
<path d="M10795 8400 c-3 -5 -1 -10 4 -10 6 0 11 5 11 10 0 6 -2 10 -4 10 -3
0 -8 -4 -11 -10z"/>
<path d="M10950 5039 c0 -5 5 -7 10 -4 6 3 10 8 10 11 0 2 -4 4 -10 4 -5 0
-10 -5 -10 -11z"/>
</g>
</svg>
